<svg width="51" height="51" fill="none" xmlns="http://www.w3.org/2000/svg"><path d="M25.556 51h-.112C11.414 51 0 39.586 0 25.556v-.112C0 11.414 11.414 0 25.444 0h.112C39.586 0 51 11.414 51 25.444v.112C51 39.586 39.586 51 25.556 51z" fill="#7360F2"/><g clip-path="url(#clip0_4003_15088)"><path d="M36.356 13.94c-.749-.691-3.775-2.888-10.517-2.918 0 0-7.95-.48-11.825 3.075-2.157 2.158-2.916 5.315-2.996 9.23-.08 3.914-.184 11.25 6.887 13.238h.007l-.005 3.035s-.045 1.23.764 1.48c.979.304 1.553-.63 2.488-1.637a79.588 79.588 0 001.755-1.985c4.835.407 8.555-.523 8.977-.66.977-.317 6.502-1.025 7.4-8.36.928-7.56-.448-12.343-2.935-14.498zm.82 13.955c-.759 6.125-5.24 6.51-6.067 6.775-.351.113-3.618.926-7.726.657 0 0-3.06 3.693-4.017 4.653-.149.15-.324.211-.441.181-.165-.04-.21-.235-.209-.52l.027-5.044c-5.982-1.66-5.633-7.904-5.565-11.173.067-3.27.682-5.948 2.506-7.75 3.278-2.968 10.03-2.524 10.03-2.524 5.703.024 8.436 1.742 9.07 2.317 2.104 1.801 3.175 6.112 2.392 12.427v.002z" fill="#fff"/><path d="M28.618 23.156c-.074-1.495-.833-2.28-2.278-2.356m4.235 3.01c.03-1.392-.383-2.556-1.238-3.49-.86-.939-2.049-1.455-3.575-1.567" stroke="#fff" stroke-width="1.002" stroke-linecap="round" stroke-linejoin="round"/><path d="M32.574 24.595c-.019-2.417-.741-4.32-2.167-5.711-1.426-1.39-3.2-2.093-5.321-2.108" stroke="#fff" stroke-width="1.002" stroke-linecap="round" stroke-linejoin="round"/><path d="M26.412 28.262s.536.045.824-.31l.563-.708c.271-.35.926-.575 1.567-.218.48.275.947.573 1.398.893.426.313 1.297 1.04 1.3 1.04.415.35.511.866.228 1.408l-.002.012a5.873 5.873 0 01-1.17 1.441c-.006.003-.006.006-.011.009-.404.337-.8.528-1.19.574a.79.79 0 01-.173.011 1.586 1.586 0 01-.505-.078l-.013-.018c-.6-.17-1.601-.592-3.269-1.512a19.47 19.47 0 01-2.746-1.814 14.406 14.406 0 01-1.235-1.096l-.041-.041-.042-.042-.042-.042-.041-.042a14.28 14.28 0 01-1.096-1.235 19.487 19.487 0 01-1.814-2.745c-.92-1.668-1.343-2.669-1.512-3.27l-.019-.012a1.583 1.583 0 01-.077-.506.76.76 0 01.01-.173c.049-.389.241-.785.576-1.19.003-.005.006-.005.008-.01.416-.465.902-.86 1.442-1.17l.012-.003c.542-.283 1.057-.187 1.407.226.003.002.729.874 1.04 1.3.32.45.619.918.893 1.399.357.64.133 1.297-.218 1.567l-.707.563c-.358.289-.31.824-.31.824s1.048 3.968 4.965 4.968z" fill="#fff"/></g><defs><clipPath id="clip0_4003_15088"><path fill="#fff" transform="translate(11 11)" d="M0 0h28.582v30.14H0z"/></clipPath></defs></svg>