<svg width="34" height="21" viewBox="0 0 34 21" fill="none" xmlns="http://www.w3.org/2000/svg">
<path fill-rule="evenodd" clip-rule="evenodd" d="M16.7523 18.4943C15.2249 19.6948 13.3905 20.4414 11.4589 20.6487C9.5272 20.8561 7.57614 20.5157 5.82873 19.6666C4.08132 18.8175 2.60806 17.4939 1.57733 15.8471C0.546603 14.2003 0 12.2967 0 10.3539C0 8.41115 0.546603 6.50756 1.57733 4.86074C2.60806 3.21393 4.08132 1.89033 5.82873 1.04123C7.57614 0.192137 9.5272 -0.148196 11.4589 0.0591333C13.3905 0.266457 15.2248 1.01304 16.7522 2.21357C18.2796 1.01304 20.1139 0.266452 22.0455 0.0591313C23.9771 -0.148195 25.9282 0.192143 27.6755 1.04125C29.4229 1.89035 30.8961 3.21395 31.9268 4.86076C32.9575 6.50758 33.504 8.41115 33.5039 10.3539C33.504 12.2966 32.9575 14.2002 31.9268 15.847C30.8961 17.4939 29.4229 18.8175 27.6755 19.6666C25.9282 20.5157 23.9771 20.856 22.0455 20.6487C20.1139 20.4414 18.2796 19.6948 16.7523 18.4943ZM12.7978 10.3539C12.7963 8.786 13.1517 7.2383 13.8368 5.82798C14.5219 4.41772 15.5189 3.18179 16.7522 2.21377C17.9845 3.18276 18.9807 4.41888 19.6657 5.82892C20.3507 7.23901 20.7067 8.78622 20.7067 10.3539C20.7067 11.9216 20.3507 13.4688 19.6657 14.8789C18.9807 16.2889 17.9845 17.5251 16.7522 18.4941C15.5189 17.5261 14.5219 16.2901 13.8368 14.8799C13.1517 13.4696 12.7963 11.9219 12.7978 10.3539ZM18.4462 18.3843C19.5786 19.0477 20.8428 19.4666 22.1572 19.6076C23.8935 19.794 25.6473 19.4881 27.2179 18.7248C28.7886 17.9616 30.1128 16.7719 31.0393 15.2916C31.9657 13.8113 32.457 12.1002 32.4569 10.3539C32.457 8.60765 31.9657 6.8965 31.0393 5.41622C30.1128 3.93594 28.7886 2.74619 27.2179 1.98296C25.6473 1.21972 23.8935 0.913798 22.1572 1.10016C20.8428 1.24123 19.5786 1.6601 18.4462 2.32349C19.3271 3.21145 20.0581 4.24064 20.6075 5.37141C21.3618 6.92407 21.7537 8.62772 21.7537 10.3539C21.7537 12.0801 21.3618 13.7837 20.6075 15.3364C20.0581 16.4672 19.3271 17.4963 18.4462 18.3843Z" fill="white"/>
<path d="M32.5165 16.4361V16.7694H32.443V16.4361H32.3086V16.3682H32.6509V16.4361H32.5165Z" fill="white"/>
<path d="M33.181 16.3676V16.7694H33.1069V16.4656L32.9938 16.7277H32.917L32.8038 16.4663V16.7694H32.7297V16.3676H32.8347L32.9554 16.644L33.0761 16.3676H33.181Z" fill="white"/>
</svg>
